<svg xmlns="http://www.w3.org/2000/svg" width="418" height="164.791" viewBox="0 0 418 164.791">
  <g id="logo-edelco" transform="translate(-44.389 245.627)">
    <path id="Trazado_28" data-name="Trazado 28" d="M663.076-70.678c-1.35.2-2.943.528-3.074-1.426-.146-2.184,1.645-1.918,3.074-1.941Z" transform="translate(-200.687 -55.936)" fill="#fff"/>
    <path id="Trazado_29" data-name="Trazado 29" d="M160.14-186.951l-5.565,22.26c-1.481-3.227-2.565-6.1-4.057-8.745-4.289-7.594-10.157-13.609-18.29-17.081-12.892-5.5-23.339-.025-29.07,12.716-.924,2.054.639,3.364,1.078,5.013a1.473,1.473,0,0,1-.725,1.372l.006-.011c0-.568-.024-1.2-.783-1.129-.187.018-.31.7-.462,1.073.038,9.865-.463,19.743.624,29.587-1.521,1.978.894,4.186-.549,5.985,1.036,1.089,1.719-1.353,2.592.077-1.172,5.27,1.37,9.619,3.913,13.706,4.115,6.614,10.31,8.476,18.473,6.042,9.665-2.88,17.424-8.979,25.105-15.174,1.554-1.254,3.053-2.577,4.843-4.094,2.206,8.734,4.307,17.056,6.408,25.379-.119,1.632-.231,3.266-1.32,4.62l-.047-.016c-.671.089-.857.556-.887,1.143-7.433,7.607-16.647,11.814-26.866,14.1l-5.01.4c.139.884,1.1.3,1.216.813.185.816-.5.817-1.035.827-1.981.038-3.963.046-5.945.065h-5.4c-1.766-.072-4.505.538-5.119-.34-2.086-2.985-5-1.833-7.56-2.386-9.841-3.059-17.308-9.179-22.8-17.805a56.864,56.864,0,0,1-6-12.731c-.255-.773-.464-2.56-1.572-.408-1.037-.7-.429-1.834-.708-2.735l-.007.028c1.315-1.5.652-3.248.619-4.917.543-13.2,1.55-26.378,1.278-39.6-.1-4.714-.713-9.365-1.247-14.031,2.346-1.88,1.755-4.549,1.885-7.024,5.63-10.981,14.028-18.935,25.572-23.464,1.2-.47,2.34-1.073,3.508-1.614-.1-.051-.193-.107-.293-.151s-.208-.08-.313-.119c.659-.851,1.6-.662,2.468-.621,8.849.414,17.792-1.114,26.548,1.264,9.812,2.305,18.641,6.416,25.6,13.96.273,1.721,2.372,2.415,2.4,4.275l-.432,1.306c-.955.592-.8,1.476-.623,2.367a.235.235,0,0,1-.063.369C160.4-190.757,159.537-189.042,160.14-186.951Z" transform="translate(-9.857 -9.641)" fill="#eb1e24"/>
    <path id="Trazado_30" data-name="Trazado 30" d="M314.24-145.591c0-5.492.009-10.984-.007-16.475,0-1.124-.284-2.312,1.517-2.267,5.481.14,11.016-.5,16.435.446,10.465,1.837,16.283,11.186,14.047,22.136-2,9.813-8.24,14.717-18.3,14.479-3.579-.084-7.169-.15-10.739.049-2.3.127-3.142-.413-3.039-2.9.21-5.146.063-10.307.063-15.462Zm6.7-.2h-.03c0,2.242-.014,4.484,0,6.726.049,6.676.053,6.676,6.9,6.516,6.154-.144,9.825-2.772,11.564-8.281,1.922-6.09.226-12.677-4.074-15.922-3.505-2.645-7.585-2.292-11.6-2.277-2.11.008-2.9,1.012-2.8,3.152C321.049-152.519,320.938-149.151,320.938-145.788Z" transform="translate(-87.94 -26.474)" fill="#fff"/>
    <path id="Trazado_31" data-name="Trazado 31" d="M475.945-126.841c-10.082,0-17.976-8.648-17.888-19.593.085-10.655,8.138-19.26,17.992-19.227,10.16.035,18.038,8.521,18.071,19.467C494.151-135.393,486.117-126.838,475.945-126.841ZM487.678-146c.155-7.312-4.824-13.171-11.337-13.336s-11.695,5.47-11.811,12.836c-.116,7.339,4.869,13.26,11.3,13.417C482.24-132.924,487.523-138.682,487.678-146Z" transform="translate(-134.855 -26.069)" fill="#fff"/>
    <path id="Trazado_32" data-name="Trazado 32" d="M368.759-145.87c0-5.379.066-10.758-.038-16.134-.033-1.7.3-2.342,2.183-2.3,6.38.131,12.768.187,19.146,0,3.283-.1,2.391,2.271,2.7,3.89.458,2.407-1.44,1.727-2.605,1.7-3.694-.077-7.386-.229-11.076-.421-2.509-.13-3.741.905-3.7,3.494.135,7.838-.725,6.553,6.267,6.483q4.2-.041,8.4-.206c1.364-.053,2.784.022,2.129,1.853-.514,1.437,1.279,4.263-2.253,4.117-3.69-.152-7.387-.136-11.076-.3-2.505-.11-3.576.689-3.51,3.463.189,8.033.075,8.048,8.021,7.663,2.571-.125,5.137-.406,7.707-.459.985-.02,3.077-.765,2.459,1.288-.49,1.63,1.014,4.969-2.634,4.7a184.964,184.964,0,0,0-19.808-.144c-1.979.067-2.456-.705-2.42-2.557.105-5.375.037-10.754.037-16.132Z" transform="translate(-105.709 -26.509)" fill="#fff"/>
    <path id="Trazado_33" data-name="Trazado 33" d="M270.71-146.154c0-5.151.092-10.305-.047-15.453-.053-1.946.219-2.79,2.474-2.728,6.152.169,12.319.236,18.467-.009,3.233-.129,2.928,1.9,3.16,3.871.33,2.784-1.759,1.715-2.915,1.713-3.58-.008-7.163-.149-10.738-.359-2.505-.148-3.646.789-3.8,3.4-.392,6.694-.474,6.694,6.27,6.563,2.8-.055,5.6-.1,8.393-.217,1.347-.056,2.736-.082,2.12,1.812-.477,1.465,1.383,4.256-2.165,4.155-3.8-.109-7.612-.075-11.409-.282-2.57-.14-3.243.991-3.249,3.387-.019,7.876.126,8.1,8.029,7.733,2.683-.125,5.358-.405,8.042-.5.935-.034,2.8-.611,2.167,1.3-.537,1.628.922,4.847-2.255,4.7q-10.247-.493-20.475-.122c-2.228.077-2.168-1.249-2.154-2.832.049-5.375.019-10.751.019-16.126Z" transform="translate(-73.751 -26.496)" fill="#fff"/>
    <path id="Trazado_34" data-name="Trazado 34" d="M410.207-144.894c-.237-13.967,8.934-22.347,21.136-20.246a13.587,13.587,0,0,1,7.809,4.281,2.3,2.3,0,0,1,.594,2.963c-1.717,3.5-2.313,3.7-5.3,1.233-6.061-5-14.335-2.6-16.746,4.884a17.807,17.807,0,0,0-.206,10.288c2.224,8.2,10.405,10.874,17.136,5.683,1.151-.887,2.111-3.266,4.134-.675,1.681,2.153,1.838,3.536-.387,5.529-9.418,8.439-24.335,3.526-27.445-9.2A43.658,43.658,0,0,1,410.207-144.894Z" transform="translate(-119.255 -26.134)" fill="#fff"/>
    <path id="Trazado_35" data-name="Trazado 35" d="M67.3-199.617c-.129,2.476.462,5.145-1.884,7.024-2.5-9.623-4.982-19.248-8.82-28.465A202.578,202.578,0,0,0,44.389-245.6c42.891,26.949,85.27,25.522,128.559-.026-8.051,13.186-15.54,25.654-20.155,39.54-.024-1.86-2.124-2.554-2.4-4.275.733.262,1.429,1.2,2.038-.326,3.615-9.04,8.325-17.548,12.875-26.13.319-.6.772-1.24.27-1.835-.779-.923-1.477.11-2.02.4a118.107,118.107,0,0,1-38.258,12.65c-1.23.179-.783.685-.509,1.287-8.756-2.378-17.7-.85-26.548-1.264-.869-.04-1.809-.23-2.468.621-16.318-1.157-31.183-6.9-45.528-14.626A199.4,199.4,0,0,1,65.521-199.35C66.1-197.033,66.659-199.732,67.3-199.617Z" transform="translate(0 0)" fill="#ec423a"/>
    <path id="Trazado_36" data-name="Trazado 36" d="M518.045-145.885c0-5.159.21-10.328-.066-15.472-.222-4.143,2.633-2.437,4.469-2.788,2.23-.428,2.863.456,2.791,2.707-.265,8.3-.264,16.6-.5,24.9-.082,2.9.636,4.326,3.931,3.96,3.888-.433,7.829-.391,11.746-.577,1.173-.055,2.763-.659,2.426,1.472-.262,1.651,1.017,4.51-1.76,4.605-7.159.244-14.336-.013-21.5-.129-1.75-.028-1.341-1.481-1.346-2.523-.026-5.385-.012-10.769-.012-16.154Z" transform="translate(-154.386 -26.529)" fill="#fff"/>
    <path id="Trazado_37" data-name="Trazado 37" d="M65.215-80.108c.278.9-.33,2.031.708,2.735-1.8,9.95-5.2,19.406-9.067,28.7-2.251,5.406-4.749,10.71-7.463,16.791C66.087-38.017,82.314-43,99.561-44.607L96.3-46.428c2.557.553,5.474-.6,7.56,2.386.614.878,3.353.268,5.119.34a169.616,169.616,0,0,0-41.169,7.434c-6.387,2.05-12.679,4.392-19.031,6.551-.894.3-1.722,1.138-3.037.519a246.832,246.832,0,0,0,12.4-27.462C61.009-64.33,62.928-72.271,65.215-80.108Z" transform="translate(-0.44 -53.959)" fill="#ec423a"/>
    <path id="Trazado_38" data-name="Trazado 38" d="M118.35-114.91c-.873-1.43-1.556,1.012-2.592-.077,1.443-1.8-.972-4.007.549-5.985.342,1.428.683,2.856,1.109,4.638,2.909-3.85,6.005-6.515,10.69-6.813,4.44-.284,8.174,2.069,12.458,3.307-3.927-10.384-3.927-10.384-1.067-23.854-.588-.358-1.04.064-1.519.283-9.762,4.465-15.96,2.381-21.056-7.08a1.473,1.473,0,0,0,.725-1.372c1.228,1.594,2.373,3.261,3.7,4.768,3.886,4.413,7.762,5.3,13.251,3.24,3.563-1.34,6.669-3.558,10.483-5.22-8.021,10.726-8.4,21.472.142,32.771-4.479-.861-7.587-2.823-10.965-4-5.91-2.058-9.871-1.312-13.465,2.653C119.971-116.744,119.164-115.824,118.35-114.91Z" transform="translate(-23.266 -30.567)" fill="#ec423a"/>
    <path id="Trazado_39" data-name="Trazado 39" d="M147.569-36.712c1.982-.02,3.964-.028,5.945-.065.53-.01,1.22-.011,1.035-.827-.117-.513-1.077.071-1.216-.813l5.01-.4c-1.224,1.358-.1,1.3.838,1.447,3.094.495,6.2.928,9.269,1.562,10.914,2.258,21.22,6.315,31.381,10.784.379.082,1.006.342,1.094.218.365-.513-.222-.622-.526-.835-4.806-8.933-9.764-17.795-12.716-27.585a1.091,1.091,0,0,0-1.539-.82c1.089-1.354,1.2-2.987,1.32-4.62,3.125,8.013,5.729,16.238,9.9,23.823a157.989,157.989,0,0,0,9.571,14.957c-6.942-2.982-13.014-5.754-19.208-8.217a113.222,113.222,0,0,0-37.851-8.3A23.278,23.278,0,0,1,147.569-36.712Z" transform="translate(-33.637 -60.949)" fill="#ec423a"/>
    <path id="Trazado_40" data-name="Trazado 40" d="M292.68-82.37c0-1.12.021-2.241,0-3.361-.065-2.9-1.556-4.234-3.8-2.688-1.943,1.336-2.957.526-4.511-.028a3.413,3.413,0,0,0-4.367,1.526,6.007,6.007,0,0,0,.276,6.951,3.444,3.444,0,0,0,4.49,1.1,6.559,6.559,0,0,0,1.45-.828c.711-.545,1.2-.306,1.679.309.555.719.161,1.251-.347,1.721a6.461,6.461,0,0,1-6.6,1.318c-3.764-1.114-5.6-6.091-3.971-10.421a6.558,6.558,0,0,1,9.324-3.711c1.161.567,1.757.466,3.154-.058,2.652-1,5.922-.367,8.936-.354.7,0,.839.611.807,1.217-.034.652-.383,1.111-1.033.995-3.393-.6-2.86,1.791-2.863,3.734,0,2.24.061,4.481.1,6.721.016,1.01.212,2.029-1.428,1.972-1.609-.057-1.381-1.081-1.377-2.08.006-1.344,0-2.689,0-4.033Z" transform="translate(-75.629 -50.328)" fill="#fff"/>
    <path id="Trazado_41" data-name="Trazado 41" d="M537.909-79.576c1.477-3.636,2.635-6.466,3.774-9.3.419-1.044.7-2.246,2.242-1.932,1.69.344,1.064,1.722,1.084,2.724.069,3.352.038,6.706.078,10.058.013,1.117-.069,1.982-1.576,1.893-1.4-.084-1.208-1.016-1.235-1.9-.047-1.544.351-3.109-.253-4.914-1.5,1.593-1.8,3.58-2.638,5.269-.342.687-.4,1.527-1.419,1.621-1.241.113-1.394-.863-1.746-1.656a23.951,23.951,0,0,0-3.069-5.518c0,1.835-.045,3.671.016,5.5.039,1.165-.443,1.576-1.569,1.582-1.169.006-1.209-.712-1.178-1.54a48.183,48.183,0,0,0-.6-11.56,1.183,1.183,0,0,1,1.175-1.6,2.136,2.136,0,0,1,2.594,1.449C534.851-86.357,536.232-83.368,537.909-79.576Z" transform="translate(-158.236 -50.448)" fill="#fff"/>
    <path id="Trazado_42" data-name="Trazado 42" d="M165.4-113.732c4.9-11.072,6.325-22,.043-32.964,6.615,1.235,12.756,7.952,13.345,14.341C179.411-125.536,173.353-116.943,165.4-113.732Zm3.917-29.074c3.116,8.1,2.281,15.993.04,24.392C179.411-126.269,179.316-137.93,169.312-142.806Z" transform="translate(-39.448 -32.251)" fill="#ec423a"/>
    <path id="Trazado_43" data-name="Trazado 43" d="M609.3-118.149c.127.531-.088.923-.605.964-.872.069-2.106.329-2.335-.742-.681-3.173-3.063-2.583-5.238-2.7-1.792-.1-3.035.348-3.439,2.3-.271,1.31-1.388,1.492-2.374,1.171-1.4-.453-.5-1.451-.225-2.189,1.529-4.091,3.122-8.157,4.638-12.253.429-1.159.963-1.926,2.362-1.916,1.361.01,1.628.981,1.992,1.908q2.4,6.1,4.764,12.2C609-118.99,609.152-118.567,609.3-118.149Zm-7.645-11.161a32.25,32.25,0,0,0-1.3,3.4c-.22.853-1.431,2-.04,2.592a4.427,4.427,0,0,0,3.247-.146c1.12-.524.152-1.57-.1-2.338A7.169,7.169,0,0,0,601.658-129.31Z" transform="translate(-179.352 -36.547)" fill="#fff"/>
    <path id="Trazado_44" data-name="Trazado 44" d="M650.968-77.564c.1.436-.249.665-.737.669-.853.006-2.093.4-2.317-.726-.687-3.451-3.322-2.508-5.511-2.7-1.53-.132-2.68.271-2.989,1.913a1.761,1.761,0,0,1-2.445,1.53c-1.81-.506-.439-1.693-.2-2.376,1.409-4.01,2.951-7.973,4.492-11.935.388-1,.654-2.006,2.234-2s1.814,1.025,2.21,2.021c1.612,4.055,3.192,8.123,4.778,12.189C650.646-78.563,650.774-78.133,650.968-77.564Zm-7.48-11.716a26.356,26.356,0,0,0-1.522,3.688c-.2.809-1.507,1.9-.117,2.513a4.479,4.479,0,0,0,3.251-.013c1.4-.611.06-1.715-.095-2.525A19.775,19.775,0,0,0,643.488-89.28Z" transform="translate(-192.88 -49.695)" fill="#fff"/>
    <path id="Trazado_45" data-name="Trazado 45" d="M555.739-83.485a12.2,12.2,0,0,1,.012-1.67c.266-1.9-1.209-4.831.667-5.516a11.317,11.317,0,0,1,8.164.47c1.807.792,2.6,2.606,1.689,4.139-1,1.682-.392,2.58.247,4.037a3.816,3.816,0,0,1-2.059,5.311c-2.5,1.055-5.283.333-7.939.371-1.2.017-.838-1.078-.849-1.792-.026-1.783-.009-3.567-.009-5.351Zm4.87,5.071c1.858.063,3.528-.3,3.524-2.29,0-2.1-1.842-2.091-3.431-2.186-1.55-.092-2.482.2-2.456,2.122C558.272-78.89,558.877-78.064,560.609-78.414Zm-.08-10.553c-1.729-.421-2.162.365-2.263,1.918-.128,1.98.927,2.168,2.424,2.057,1.436-.107,3.162.009,3.043-2.079C563.621-89.071,561.816-88.8,560.53-88.968Z" transform="translate(-166.606 -50.335)" fill="#fff"/>
    <path id="Trazado_46" data-name="Trazado 46" d="M312.288-83.466c0-.671.011-1.342,0-2.013-.114-5.862-.115-5.862,5.691-5.461,4.957.342,6.779,3.925,3.878,8.084-1.41,2.022.565,3.02.747,4.522.083.683,1.118,1.514.052,1.983a1.735,1.735,0,0,1-2.531-.855c-.125-.31-.282-.608-.431-.908-.754-1.527-.96-3.706-3.527-3.155-2.35.5-.87,2.358-1.132,3.572-.18.834-.183,1.479-1.29,1.491-1.139.011-1.59-.386-1.545-1.558.073-1.9.02-3.8.02-5.7Zm2.653-2.52c-.264,1.479-.114,2.73,2.04,2.595,1.741-.11,3.437-.13,3.5-2.5.059-2.277-1.523-2.627-3.292-2.827C315.122-88.953,314.708-87.819,314.941-85.986Z" transform="translate(-87.305 -50.38)" fill="#fff"/>
    <path id="Trazado_47" data-name="Trazado 47" d="M474.773-91.159a7.306,7.306,0,0,1,7.191,7.62,7.346,7.346,0,0,1-7.254,7.586c-3.872-.01-6.867-3.241-6.931-7.476C467.712-87.838,470.686-91.124,474.773-91.159Zm4.535,7.653c.009-2.956-1.918-5.163-4.51-5.163-2.434,0-4.365,2.12-4.45,4.884-.088,2.848,1.915,5.323,4.35,5.375C477.248-78.354,479.3-80.622,479.308-83.506Z" transform="translate(-138.025 -50.356)" fill="#fff"/>
    <path id="Trazado_48" data-name="Trazado 48" d="M403.077-83.6a8.872,8.872,0,0,1,.016-1.672c.364-1.86-1.271-4.9.767-5.4,3.092-.765,6.823-1,9.571,1.473,2.447,2.2,2.949,5.181,1.893,8.31a6.359,6.359,0,0,1-6.557,4.663c-5.806.06-5.805.111-5.7-5.7.01-.558,0-1.116,0-1.675Zm2.581.14c.53,1.414-1.064,3.807.911,4.86a4.508,4.508,0,0,0,4.986-.886c1.93-1.723,2.147-5.618.479-7.634A5.1,5.1,0,0,0,406.87-88.7c-2.157.4-.844,2.374-1.194,3.611A7.284,7.284,0,0,0,405.658-83.458Z" transform="translate(-116.847 -50.345)" fill="#fff"/>
    <path id="Trazado_49" data-name="Trazado 49" d="M521.2-83.553c.013,4.354-3.125,7.676-7.2,7.622A7.39,7.39,0,0,1,507-83.487a7.353,7.353,0,0,1,7.179-7.673A7.435,7.435,0,0,1,521.2-83.553Zm-11.564.146c.069,2.654,2.136,5.007,4.415,5.025,2.434.02,4.621-2.434,4.624-5.189,0-2.886-2.032-5.157-4.605-5.137C511.6-88.689,509.56-86.248,509.634-83.407Z" transform="translate(-150.812 -50.356)" fill="#fff"/>
    <path id="Trazado_50" data-name="Trazado 50" d="M356.688-83.589a7.3,7.3,0,0,1,6.85-7.585,7.312,7.312,0,0,1,7.359,7.451,7.4,7.4,0,0,1-7.053,7.787C359.851-75.876,356.724-79.22,356.688-83.589Zm11.638-.163a4.82,4.82,0,0,0-4.815-4.916c-2.315.119-4.272,2.468-4.27,5.12,0,2.77,2.217,5.222,4.639,5.136C366.342-78.5,368.407-80.979,368.326-83.752Z" transform="translate(-101.809 -50.351)" fill="#fff"/>
    <path id="Trazado_51" data-name="Trazado 51" d="M424.739-83.7c0-.336,0-.672,0-1.008-.08-6.617,1.034-7.5,7.792-6.319.917.16,1.546.47,1.492,1.409-.071,1.205-1.077.877-1.8.871-1.117-.008-2.235-.139-3.352-.131-1.306.009-1.667.861-1.677,2.021-.011,1.195.353,1.934,1.725,1.838,1-.07,2.014-.052,3.021-.04.825.01,1.924-.386,1.812,1.151-.1,1.366-1.078,1.165-1.965,1.144-.783-.018-1.564-.041-2.347-.055-1.416-.026-2.331.35-2.257,2.091.073,1.7.712,2.468,2.452,2.284,1.111-.117,2.235-.1,3.352-.158.746-.039,1.332.073,1.291,1.032-.034.8-.4,1.258-1.215,1.258-2.461,0-4.923.008-7.383-.04-1.406-.028-1.093-1.13-1.1-1.976-.017-1.79-.005-3.581-.005-5.372Z" transform="translate(-123.934 -50.256)" fill="#fff"/>
    <path id="Trazado_52" data-name="Trazado 52" d="M226.8-83.741c0-.224,0-.448,0-.672-.136-7.194.12-7.413,7.508-6.558.787.091,1.643.015,1.677,1.146.046,1.5-1.1,1.1-1.906,1.118-1,.019-2.012-.077-3.018-.135-1.552-.09-1.806.846-1.845,2.135-.042,1.339.534,1.806,1.794,1.729,1-.061,2.015-.061,3.022-.047.81.011,1.911-.425,1.832,1.115-.072,1.39-1.086,1.157-1.948,1.166-.783.009-1.566-.061-2.348-.044-1.306.028-2.4.167-2.353,2,.046,1.67.525,2.558,2.331,2.389,1.113-.1,2.236-.118,3.355-.143.632-.013,1.447-.227,1.477.8.025.872-.3,1.543-1.339,1.527-2.35-.034-4.7-.105-7.051-.092-1.273.007-1.429-.706-1.407-1.729.04-1.9.011-3.806.011-5.709Z" transform="translate(-59.395 -50.304)" fill="#fff"/>
    <path id="Trazado_53" data-name="Trazado 53" d="M260.224-83.574c0-.224,0-.448,0-.671-.064-7.261.551-7.787,7.7-6.774.871.123,1.568.3,1.594,1.3.032,1.251-.939,1-1.67,1a26.571,26.571,0,0,1-2.682-.121c-1.417-.142-2.353.1-2.416,1.868-.062,1.734.714,2.135,2.224,1.969a22.7,22.7,0,0,1,2.685-.055c.764.008,1.663-.137,1.606,1.1-.047,1.01-.6,1.311-1.553,1.236-1-.078-2.015,0-3.02-.058-1.414-.08-2.018.482-1.935,1.956.075,1.33.089,2.529,1.92,2.4,1.115-.079,2.235-.12,3.353-.142.737-.015,1.674-.311,1.727.941.054,1.277-.78,1.394-1.769,1.37-1.9-.046-3.813-.169-5.7-.036-1.772.125-2.4-.419-2.2-2.244a46.108,46.108,0,0,0,.039-5.036Z" transform="translate(-70.303 -50.275)" fill="#fff"/>
    <path id="Trazado_54" data-name="Trazado 54" d="M595-76.633c-1.244.492-2.141.758-3.019-.493-2.359-3.362-5.639-3.37-7.721,0a1.748,1.748,0,0,1-2.243.831c-1.243-.378-.425-1.314-.2-1.915,1.407-3.756,2.9-7.48,4.337-11.223.327-.849.56-1.618,1.752-1.672,1.309-.059,1.715.685,2.1,1.688C591.649-85.166,593.324-80.925,595-76.633ZM587.94-88.125c-.552,2.754-2.338,4.3-1.368,6.14.388.735,2.592.7,2.968-.057C590.463-83.909,588.772-85.435,587.94-88.125Z" transform="translate(-175.049 -50.372)" fill="#fff"/>
    <path id="Trazado_55" data-name="Trazado 55" d="M557.283-157.6c.541.753.942.218,1.256-.191a7.885,7.885,0,0,0-.228-9.381,6.977,6.977,0,0,0-8.4-2.215,7.953,7.953,0,0,0-4.334,8.319c.207,1.527,1.6,2.8.914,4.487a8.6,8.6,0,0,1,.033-12.085,8.392,8.392,0,0,1,11.771-.64,9.5,9.5,0,0,1,.972,13.024c-3.088,3.668-7.769,4.06-11.869.926,1.418-.97,2.482.295,3.649.529,3.214.646,5.8-.47,6.315-2.858Z" transform="translate(-162.884 -24.192)" fill="#fff"/>
    <path id="Trazado_56" data-name="Trazado 56" d="M619.414-90.059c-.977-.246-2.221-.253-2.561,1.117-.42,1.688,1.042,2.287,2.245,2.874,2.211,1.079,3.759,2.574,3.079,5.263-.743,2.933-2.945,4.068-5.761,4.244-1,.063-1.961.158-2.189-1.355-.262-1.733.795-1.467,1.8-1.523,1.353-.077,2.86-.1,3.135-1.851.268-1.711-1.2-2.271-2.356-2.885-2.355-1.256-3.733-2.972-2.692-5.714,1.067-2.809,3.371-3.449,6.047-2.836.9.207,2.59-.1,2.31,1.7C622.174-89.143,620.838-89.6,619.414-90.059Z" transform="translate(-185.615 -49.777)" fill="#fff"/>
    <path id="Trazado_57" data-name="Trazado 57" d="M337.91-82.338c-.169-6.926,4.8-10.634,9.693-8.207,1.055.524,2.537.992,1.6,2.658-.856,1.519-1.619.158-2.423-.222-1.9-.9-3.829-.97-5.112.893a5.945,5.945,0,0,0,.032,7.232c1.287,1.77,3.177,1.9,5.1.84.783-.429,1.543-1.74,2.46-.313.956,1.485-.5,1.955-1.352,2.508a7.1,7.1,0,0,1-6.782.392A5.635,5.635,0,0,1,337.91-82.338Z" transform="translate(-95.683 -50.314)" fill="#fff"/>
    <path id="Trazado_58" data-name="Trazado 58" d="M574.82-116.854c-1.371.179-2.184-.338-2.265-1.769-.091-1.6,1.143-.986,1.884-1.059,1.384-.135,2.85-.258,3.135-1.911s-1.145-2.307-2.324-2.892c-2.77-1.374-3.749-3.454-2.522-6.321.96-2.243,4.3-3.119,7.083-1.988.685.278,1.629.425,1.062,1.583-.34.694-.526,1.525-1.635,1.2a11.2,11.2,0,0,0-1.962-.375,1.682,1.682,0,0,0-1.973.891,1.72,1.72,0,0,0,.826,2.279,9.492,9.492,0,0,0,1.434.859c2.479,1.094,3.753,2.892,2.924,5.6S577.414-117.109,574.82-116.854Z" transform="translate(-172.069 -36.623)" fill="#fff"/>
    <path id="Trazado_59" data-name="Trazado 59" d="M448.862-83.642c.059-5.882,5.226-9.433,9.977-6.84.984.536,2.111,1.121,1.353,2.55-.847,1.6-1.6.224-2.372-.162-1.9-.951-3.77-1.016-5.1.807a5.842,5.842,0,0,0-.062,7.19c1.279,1.837,3.123,1.9,5.077.99.841-.393,1.764-1.969,2.624-.171.687,1.438-.707,1.911-1.606,2.423C454.026-74.161,448.8-77.762,448.862-83.642Z" transform="translate(-131.858 -50.297)" fill="#fff"/>
    <path id="Trazado_60" data-name="Trazado 60" d="M382.97-76.04c-.989-.037-1.959.3-2.168-1.084-.2-1.353.52-1.455,1.545-1.471,1.259-.02,2.674-.181,2.9-1.68.22-1.437-1.065-2.083-2.161-2.644-2.5-1.279-3.53-3.237-2.135-5.77,1.367-2.48,3.747-2.457,6.18-1.738.652.193,1.377.3,1.177,1.257-.181.869-.619,1.421-1.626,1.219a18.792,18.792,0,0,0-1.973-.334,1.5,1.5,0,0,0-1.591.993,1.483,1.483,0,0,0,.648,1.749,8.246,8.246,0,0,0,1.4.9c2.1,1.034,3.544,2.476,2.754,5.02A4.961,4.961,0,0,1,382.97-76.04Z" transform="translate(-109.516 -50.457)" fill="#fff"/>
    <path id="Trazado_61" data-name="Trazado 61" d="M491.316-83.626c0-1.791.032-3.584-.012-5.375-.026-1.045.194-1.75,1.435-1.738s1.457.751,1.425,1.771c-.08,2.577-.031,5.161-.231,7.728-.184,2.362.678,3.313,3.044,2.934a20.049,20.049,0,0,1,2.682-.113c.673-.017,1.384-.072,1.432.912.047.952-.346,1.473-1.352,1.461-2.351-.028-4.7-.067-7.053-.049-1.367.01-1.3-.88-1.293-1.817.018-1.9.005-3.809.005-5.713Z" transform="translate(-145.694 -50.493)" fill="#fff"/>
    <path id="Trazado_62" data-name="Trazado 62" d="M243.688-83.254c0-1.9.015-3.805-.006-5.707-.011-.971.031-1.795,1.356-1.784,1.23.009,1.5.707,1.478,1.733-.059,2.463.007,4.936-.2,7.386-.218,2.585.575,3.847,3.342,3.309a9.508,9.508,0,0,1,2.009-.09c.716.015,1.675-.357,1.8.869s-.606,1.548-1.657,1.5q-.336-.017-.671-.011C243.984-75.915,243.984-75.915,243.688-83.254Z" transform="translate(-64.969 -50.491)" fill="#fff"/>
    <path id="Trazado_63" data-name="Trazado 63" d="M577.954-83.519c0,1.9-.027,3.8.011,5.706.021,1.034-.172,1.7-1.436,1.707-1.232,0-1.562-.611-1.481-1.665a79,79,0,0,0-.006-11.408c-.078-1.142.4-1.621,1.566-1.577,1.066.04,1.3.632,1.3,1.529-.011,1.9,0,3.805,0,5.708Z" transform="translate(-172.99 -50.487)" fill="#fff"/>
    <path id="Trazado_64" data-name="Trazado 64" d="M559.807-155.771c-1.42.419-2.263-.216-2.993-1.414-.608-1-1.15-2.224-2.611-2.3a2.284,2.284,0,0,0-.453.417c-.63,1.035.784,3.272-1.161,3.226-1.969-.046-.552-2.133-.918-3.248a5.593,5.593,0,0,1-.039-1.663c-.012-4.508,1.321-5.535,5.631-4.311,1.872.531,2.92,2.274,1.78,3.491-1.921,2.05-.589,3.17.369,4.654a3.992,3.992,0,0,1,.309,1.231Zm-4.646-5.345c.859-.074,1.975.137,2.06-1.13s-1-1.266-1.885-1.385c-1.031-.139-1.738.077-1.743,1.351C553.588-161.089,554.347-161.111,555.161-161.116Z" transform="translate(-165.324 -26.109)" fill="#fff"/>
    <path id="Trazado_65" data-name="Trazado 65" d="M333.862-83.207c0,1.9-.01,3.8,0,5.7.007.941-.329,1.407-1.366,1.4-.981,0-1.422-.325-1.417-1.337q.029-5.865-.008-11.729c-.007-1.076.312-1.676,1.529-1.611,1.063.057,1.281.661,1.277,1.543-.009,2.011,0,4.022,0,6.032Z" transform="translate(-93.46 -50.478)" fill="#fff"/>
    <path id="Trazado_66" data-name="Trazado 66" d="M591.211-112.564c-.038.985-.46,1.727-1.55,1.774-1.261.054-1.811-.745-1.8-1.9a1.516,1.516,0,0,1,1.709-1.632C590.625-114.3,591.151-113.641,591.211-112.564Z" transform="translate(-177.17 -42.805)" fill="#fff"/>
    <path id="Trazado_67" data-name="Trazado 67" d="M632.9-72.27c-.109,1.12-.621,1.789-1.688,1.8a1.514,1.514,0,0,1-1.669-1.66c-.02-1.188.5-1.959,1.783-1.859A1.672,1.672,0,0,1,632.9-72.27Z" transform="translate(-190.76 -55.951)" fill="#fff"/>
    <path id="Trazado_68" data-name="Trazado 68" d="M621.769-112.414c-.249.926-.65,1.75-1.747,1.674-1.241-.086-1.683-.938-1.568-2.089a1.453,1.453,0,0,1,1.81-1.447C621.376-114.148,621.663-113.348,621.769-112.414Z" transform="translate(-187.14 -42.814)" fill="#fff"/>
    <path id="Trazado_69" data-name="Trazado 69" d="M201.406-175.513c-.6-2.091.263-3.806,1.392-5.454A13.8,13.8,0,0,1,201.406-175.513Z" transform="translate(-51.123 -21.079)" fill="#ec423a"/>
    <path id="Trazado_70" data-name="Trazado 70" d="M75.243-87.363c.033,1.669.7,3.418-.619,4.917C74.724-84.1,74.493-85.793,75.243-87.363Z" transform="translate(-9.857 -51.594)" fill="#ec423a"/>
    <path id="Trazado_71" data-name="Trazado 71" d="M203.6-182.659c-.179-.891-.332-1.775.623-2.367A2.815,2.815,0,0,1,203.6-182.659Z" transform="translate(-51.858 -19.756)" fill="#ec423a"/>
    <path id="Trazado_72" data-name="Trazado 72" d="M98.065-45.6l3.264,1.821c-17.247,1.611-33.474,6.59-50.168,12.722,2.714-6.081,5.211-11.385,7.463-16.791,3.869-9.29,7.262-18.746,9.067-28.7,1.107-2.151,1.316-.365,1.572.408a56.864,56.864,0,0,0,6,12.731C80.757-54.779,88.224-48.659,98.065-45.6Z" transform="translate(-2.208 -54.787)" fill="#facebc"/>
    <path id="Trazado_73" data-name="Trazado 73" d="M70.137-196.7c-.643-.115-1.2,2.584-1.781.267a199.4,199.4,0,0,0-15.272-40.24c14.345,7.723,29.21,13.469,45.528,14.626.1.039.211.074.313.119s.2.1.293.151c-1.168.541-2.312,1.144-3.508,1.614C84.165-215.633,75.766-207.679,70.137-196.7Z" transform="translate(-2.834 -2.92)" fill="#facebc"/>
    <path id="Trazado_74" data-name="Trazado 74" d="M116.846-149.86c5.1,9.462,11.294,11.545,21.056,7.08.479-.219.931-.641,1.519-.283-2.86,13.469-2.86,13.469,1.067,23.854-4.284-1.239-8.017-3.591-12.458-3.307-4.684.3-7.781,2.964-10.69,6.813-.426-1.782-.768-3.21-1.109-4.638-1.087-9.844-.586-19.721-.625-29.587l1.246.057Z" transform="translate(-23.19 -31.198)" fill="#facebc"/>
    <path id="Trazado_75" data-name="Trazado 75" d="M191.094-51.857a1.091,1.091,0,0,1,1.539.82c2.952,9.791,7.909,18.653,12.716,27.585l-.568.619c-10.161-4.47-20.466-8.527-31.38-10.785-3.066-.634-6.175-1.068-9.269-1.562-.934-.149-2.062-.089-.838-1.447,10.219-2.288,19.433-6.494,26.866-14.1l.887-1.143Z" transform="translate(-38.588 -63.14)" fill="#facebc"/>
    <path id="Trazado_76" data-name="Trazado 76" d="M163.532-221.132c-.274-.6-.721-1.108.509-1.287a118.108,118.108,0,0,0,38.258-12.65c.543-.286,1.241-1.319,2.02-.4.5.6.049,1.232-.27,1.835-4.55,8.583-9.26,17.09-12.875,26.13-.609,1.524-1.306.588-2.038.326C182.174-214.716,173.344-218.827,163.532-221.132Z" transform="translate(-38.74 -3.191)" fill="#facebc"/>
    <path id="Trazado_77" data-name="Trazado 77" d="M116.892-150.393l-1.246-.057c.153-.375.276-1.054.463-1.072C116.867-151.6,116.89-150.961,116.892-150.393Z" transform="translate(-23.23 -30.676)" fill="#ec423a"/>
    <path id="Trazado_78" data-name="Trazado 78" d="M204.3-51.837l-.887,1.143C203.444-51.281,203.63-51.748,204.3-51.837Z" transform="translate(-51.842 -63.176)" fill="#ec423a"/>
    <path id="Trazado_79" data-name="Trazado 79" d="M225.675-9.67c.3.213.891.322.526.835-.088.124-.714-.135-1.094-.218Z" transform="translate(-58.914 -76.922)" fill="#facebc"/>
    <path id="Trazado_80" data-name="Trazado 80" d="M171.206-140.925c10,4.876,10.1,16.537.04,24.392C173.487-124.932,174.322-132.822,171.206-140.925Z" transform="translate(-41.342 -34.133)" fill="#facebc"/>
  </g>
</svg>
