<svg xmlns="http://www.w3.org/2000/svg" width="64" height="64" viewBox="0 0 64 64">
  <g id="whatsapp" transform="translate(-1729 -748)">
    <g id="Elipse_21" data-name="Elipse 21" transform="translate(1729 748)" fill="none" stroke="#fff" stroke-width="3">
      <circle cx="32" cy="32" r="32" stroke="none"/>
      <circle cx="32" cy="32" r="30.5" fill="none"/>
    </g>
    <g id="Grupo_24" data-name="Grupo 24" transform="translate(1743.33 762.341)">
      <path id="Trazado_100" data-name="Trazado 100" d="M18.593.021A17.779,17.779,0,0,0,3.624,25.843L1.738,35a.692.692,0,0,0,.837.813l8.975-2.126A17.773,17.773,0,1,0,18.593.021ZM29.3,27.612a13.925,13.925,0,0,1-16.033,2.624l-1.25-.623-5.5,1.3L7.675,25.3l-.616-1.206A13.928,13.928,0,0,1,9.622,7.932,13.916,13.916,0,1,1,29.3,27.612Z" transform="translate(-1.69 0)" fill="#fff"/>
      <path id="Trazado_101" data-name="Trazado 101" d="M122.16,119.838l-3.442-.988a1.283,1.283,0,0,0-1.27.334l-.842.858a1.254,1.254,0,0,1-1.363.288,18.377,18.377,0,0,1-5.929-5.228,1.254,1.254,0,0,1,.1-1.39l.735-.951a1.283,1.283,0,0,0,.158-1.3l-1.448-3.276a1.284,1.284,0,0,0-2-.459,5.79,5.79,0,0,0-2.239,3.415c-.244,2.412.79,5.452,4.7,9.1,4.519,4.218,8.138,4.775,10.494,4.2a5.79,5.79,0,0,0,3.078-2.684A1.284,1.284,0,0,0,122.16,119.838Z" transform="translate(-95.763 -98.212)" fill="#fff"/>
    </g>
  </g>
</svg>
